<?xml version="1.0" encoding="utf-8"?>
<!-- Generator: Adobe Illustrator 21.1.0, SVG Export Plug-In . SVG Version: 6.00 Build 0)  -->
<svg version="1.1" xmlns="http://www.w3.org/2000/svg" xmlns:xlink="http://www.w3.org/1999/xlink" x="0px" y="0px"
	 viewBox="0 0 125 40" enable-background="new 0 0 125 40" xml:space="preserve">
<g id="bg" display="none">
	<rect display="inline" fill="#FFFFFF" width="125" height="40"/>
</g>
<g id="icons">
	<g id="Skr3Wr.tif">
		<g>
			<path fill="#263241" d="M14.126,14.087c0.509-1.159,1.345-1.801,2.646-1.816c1.33-0.015,2.111,0.704,2.651,1.867
				c0.059-0.096,0.107-0.16,0.14-0.231c0.357-0.751,0.934-1.276,1.725-1.493c1.207-0.331,2.312-0.134,3.203,0.821
				c0.327,0.351,0.512,0.782,0.579,1.249c0.059,0.414,0.087,0.835,0.089,1.253c0.008,2.474,0.004,4.949,0.002,7.423
				c0,0.099-0.009,0.202-0.037,0.297c-0.05,0.166-0.173,0.258-0.348,0.259c-0.692,0.003-1.385,0.006-2.078-0.001
				c-0.225-0.002-0.355-0.145-0.37-0.37c-0.005-0.077-0.002-0.156-0.002-0.233c0-2.179,0.005-4.357-0.005-6.536
				c-0.001-0.307-0.048-0.619-0.118-0.918c-0.141-0.599-0.717-0.794-1.243-0.724c-0.723,0.096-1.125,0.64-1.199,1.293
				c-0.049,0.431-0.068,0.868-0.07,1.302c-0.007,1.844-0.007,3.688-0.001,5.532c0.002,0.571-0.121,0.673-0.659,0.66
				c-0.56-0.013-1.12-0.002-1.681-0.003c-0.376-0.001-0.486-0.111-0.486-0.484c0-2.093,0-4.186,0-6.279
				c0-0.437-0.03-0.87-0.175-1.286c-0.212-0.609-0.788-0.898-1.419-0.732c-0.552,0.145-0.827,0.539-0.922,1.057
				c-0.081,0.441-0.135,0.893-0.138,1.34c-0.015,1.953-0.006,3.906-0.006,5.859c0,0.418-0.107,0.525-0.523,0.526
				c-0.607,0.001-1.214,0.002-1.821-0.001c-0.36-0.001-0.491-0.134-0.491-0.495c-0.001-3.4-0.001-6.801,0-10.201
				c0-0.376,0.165-0.541,0.539-0.542c0.552-0.002,1.105-0.002,1.657,0c0.367,0.001,0.499,0.137,0.499,0.508c0,0.355,0,0.711,0,1.066
				C14.084,14.065,14.105,14.076,14.126,14.087z"/>
			<path fill="#0B83C2" d="M73.457,13.584c0.311-0.183,0.586-0.354,0.87-0.51c1.117-0.615,2.301-0.968,3.588-0.882
				c0.854,0.057,1.604,0.345,2.133,1.063c0.069,0.093,0.129,0.194,0.191,0.292c0.106,0.167,0.104,0.166,0.28,0.058
				c0.31-0.191,0.615-0.392,0.934-0.566c0.761-0.415,1.571-0.693,2.433-0.806c0.629-0.082,1.262-0.099,1.875,0.069
				c0.946,0.259,1.591,0.854,1.896,1.807c0.142,0.443,0.199,0.893,0.199,1.352c0.004,2.544,0.002,5.088,0.002,7.632
				c0,0.023,0,0.047,0,0.07c-0.004,0.444-0.113,0.554-0.55,0.555c-0.381,0-0.762,0.001-1.144,0c-0.393-0.001-0.496-0.1-0.506-0.494
				c-0.006-0.225-0.001-0.451-0.001-0.677c0-2.093,0.002-4.186-0.002-6.278c-0.001-0.411-0.024-0.822-0.149-1.22
				c-0.169-0.537-0.499-0.884-1.068-1.018c-0.558-0.131-1.099-0.037-1.639,0.065c-0.652,0.124-1.254,0.393-1.84,0.703
				c-0.182,0.096-0.243,0.21-0.242,0.419c0.008,2.653,0.002,5.306,0.01,7.959c0.001,0.364-0.19,0.564-0.553,0.546
				c-0.396-0.02-0.793-0.002-1.19-0.006c-0.343-0.004-0.478-0.143-0.478-0.486c0-2.272,0.001-4.543-0.001-6.815
				c0-0.396,0.001-0.789-0.09-1.181c-0.179-0.77-0.618-1.146-1.296-1.239c-0.548-0.076-1.081,0.019-1.615,0.131
				c-0.606,0.127-1.157,0.382-1.697,0.671c-0.18,0.097-0.24,0.22-0.24,0.426c0.007,2.614,0.005,5.228,0.004,7.842
				c0,0.093-0.001,0.187-0.012,0.279c-0.03,0.248-0.124,0.36-0.365,0.367c-0.482,0.014-0.965,0.012-1.447,0.001
				c-0.23-0.005-0.332-0.118-0.362-0.346c-0.011-0.084-0.014-0.17-0.014-0.256c-0.001-3.33-0.001-6.66,0-9.989
				c0-0.529,0.078-0.606,0.605-0.606c0.272,0,0.545-0.003,0.817,0.001c0.32,0.004,0.434,0.094,0.508,0.399
				c0.027,0.113,0.037,0.23,0.063,0.343C73.385,13.359,73.42,13.458,73.457,13.584z"/>
			<path fill="#263241" d="M6.585,22.456c-0.398,0.308-0.751,0.613-1.136,0.87c-0.549,0.366-1.173,0.519-1.831,0.533
				c-0.209,0.004-0.419,0.009-0.628-0.001c-1.236-0.059-2.147-0.61-2.62-1.781c-0.138-0.343-0.239-0.706-0.222-1.088
				c0.006-0.148-0.001-0.296,0.001-0.443c0.023-1.473,0.726-2.511,2.031-3.158c0.612-0.304,1.272-0.443,1.943-0.532
				c0.585-0.078,1.172-0.138,1.758-0.208c0.25-0.03,0.256-0.036,0.256-0.287c0-0.249,0.008-0.498-0.007-0.746
				c-0.055-0.907-0.717-1.296-1.506-1.245c-0.366,0.024-0.717,0.134-1.004,0.384c-0.255,0.222-0.4,0.51-0.48,0.833
				c-0.075,0.301-0.21,0.395-0.519,0.361c-0.579-0.064-1.159-0.121-1.737-0.192c-0.351-0.043-0.446-0.192-0.377-0.543
				c0.26-1.319,1.058-2.176,2.289-2.657c0.961-0.376,1.965-0.459,2.977-0.346c0.841,0.094,1.643,0.333,2.301,0.912
				c0.46,0.404,0.761,0.902,0.855,1.507c0.061,0.39,0.105,0.786,0.109,1.18c0.013,1.338,0.008,2.676,0.004,4.014
				c-0.002,0.578,0.144,1.102,0.493,1.568c0.125,0.167,0.246,0.34,0.342,0.524c0.1,0.191,0.067,0.315-0.092,0.454
				c-0.496,0.435-0.995,0.867-1.495,1.297c-0.212,0.182-0.426,0.178-0.654,0.003c-0.374-0.288-0.658-0.657-0.923-1.042
				C6.671,22.563,6.623,22.505,6.585,22.456z M6.127,18.283c-0.077-0.006-0.124-0.018-0.168-0.012
				c-0.46,0.06-0.928,0.089-1.378,0.196c-0.466,0.111-0.888,0.35-1.149,0.774c-0.355,0.579-0.403,1.201-0.139,1.828
				c0.224,0.531,0.663,0.786,1.228,0.715c0.423-0.053,0.77-0.271,1.037-0.606c0.355-0.445,0.542-0.958,0.565-1.522
				C6.142,19.207,6.127,18.756,6.127,18.283z"/>
			<path fill="#263241" d="M33.341,22.432c-0.129,0.111-0.249,0.207-0.36,0.31c-0.465,0.434-0.976,0.795-1.599,0.96
				c-0.254,0.067-0.516,0.128-0.776,0.142c-0.495,0.026-0.99,0.054-1.484-0.066c-0.924-0.225-1.616-0.74-1.951-1.632
				c-0.439-1.17-0.393-2.335,0.254-3.431c0.436-0.739,1.109-1.197,1.904-1.49c0.825-0.304,1.688-0.408,2.553-0.502
				c0.286-0.031,0.572-0.059,0.858-0.086c0.115-0.011,0.19-0.047,0.185-0.183c-0.014-0.387,0.024-0.775-0.081-1.159
				c-0.132-0.487-0.441-0.769-0.922-0.878c-0.593-0.135-1.126-0.013-1.583,0.392c-0.214,0.189-0.349,0.431-0.409,0.715
				c-0.074,0.355-0.216,0.458-0.567,0.42c-0.572-0.061-1.143-0.121-1.714-0.187c-0.338-0.039-0.466-0.218-0.393-0.541
				c0.267-1.192,0.944-2.055,2.064-2.558c0.667-0.3,1.369-0.438,2.099-0.474c0.532-0.026,1.057-0.007,1.577,0.102
				c0.87,0.182,1.664,0.509,2.225,1.242c0.269,0.351,0.446,0.751,0.496,1.188c0.056,0.485,0.093,0.975,0.098,1.463
				c0.013,1.253,0.01,2.506,0.002,3.758c-0.003,0.543,0.173,1.018,0.48,1.454c0.098,0.14,0.203,0.275,0.296,0.418
				c0.147,0.226,0.116,0.417-0.086,0.593c-0.461,0.404-0.922,0.809-1.384,1.212c-0.28,0.244-0.487,0.239-0.781,0.003
				c-0.343-0.276-0.606-0.621-0.853-0.98C33.447,22.573,33.4,22.513,33.341,22.432z M32.911,18.282
				c-0.088-0.006-0.142-0.018-0.195-0.011c-0.43,0.055-0.862,0.098-1.287,0.177c-0.378,0.071-0.709,0.254-1.001,0.513
				c-0.582,0.515-0.625,1.629-0.34,2.185c0.226,0.441,0.587,0.645,1.069,0.642c0.466-0.003,0.825-0.233,1.127-0.569
				c0.401-0.447,0.573-0.993,0.62-1.572C32.94,19.202,32.911,18.751,32.911,18.282z"/>
			<path fill="#263241" d="M60.466,14.188c0.092-0.166,0.184-0.332,0.277-0.498c0.329-0.586,0.771-1.046,1.425-1.267
				c0.543-0.184,1.101-0.19,1.658-0.101c0.474,0.076,0.9,0.268,1.268,0.591c0.379,0.332,0.639,0.734,0.787,1.211
				c0.191,0.614,0.245,1.25,0.249,1.886c0.015,2.364,0.017,4.729,0.024,7.093c0,0.07,0.004,0.14-0.002,0.21
				c-0.018,0.236-0.141,0.368-0.375,0.405c-0.061,0.009-0.124,0.012-0.186,0.012c-0.583,0.001-1.167,0.003-1.75,0
				c-0.423-0.002-0.536-0.12-0.536-0.545c0-2.054,0.006-4.107-0.005-6.161c-0.002-0.393-0.052-0.789-0.118-1.178
				c-0.087-0.515-0.438-0.879-0.872-0.947c-0.547-0.086-0.984,0.111-1.285,0.565c-0.332,0.499-0.451,1.073-0.456,1.66
				c-0.015,2.015-0.013,4.029-0.017,6.044c-0.001,0.433-0.132,0.562-0.571,0.563c-0.568,0-1.136,0.001-1.704,0
				c-0.417-0.001-0.544-0.12-0.572-0.531c-0.005-0.07-0.002-0.14-0.002-0.21c0-3.283,0-6.565,0-9.848
				c0-0.085-0.003-0.172,0.011-0.256c0.045-0.271,0.202-0.405,0.479-0.406c0.583-0.003,1.167-0.003,1.75,0
				c0.307,0.002,0.454,0.154,0.455,0.459c0.002,0.411,0,0.822,0,1.233C60.422,14.178,60.444,14.183,60.466,14.188z"/>
			<path fill="#263241" d="M46.951,18.09c-0.022-0.86,0.084-1.704,0.353-2.523c0.401-1.22,1.073-2.231,2.246-2.841
				c0.537-0.279,1.112-0.429,1.718-0.447c0.546-0.016,1.084,0.015,1.613,0.178c0.755,0.233,1.391,0.641,1.905,1.237
				c0.632,0.733,1.003,1.589,1.22,2.528c0.233,1.012,0.283,2.032,0.148,3.054c-0.17,1.28-0.613,2.457-1.541,3.394
				c-1.053,1.064-2.341,1.438-3.812,1.222c-0.857-0.126-1.594-0.5-2.211-1.099c-0.543-0.527-0.917-1.169-1.185-1.873
				c-0.256-0.672-0.382-1.373-0.451-2.085C46.931,18.589,46.951,18.338,46.951,18.09z M53.22,18.205
				c-0.027-0.897-0.069-1.787-0.311-2.656c-0.148-0.53-0.418-0.941-0.999-1.08c-0.462-0.111-1.06,0.039-1.369,0.472
				c-0.338,0.473-0.456,1.016-0.511,1.573c-0.048,0.493-0.052,0.992-0.059,1.488c-0.005,0.318,0.019,0.636,0.031,0.953
				c0.025,0.678,0.111,1.346,0.394,1.97c0.206,0.455,0.527,0.791,1.062,0.826c0.527,0.035,0.929-0.188,1.214-0.631
				c0.241-0.374,0.356-0.795,0.412-1.224C53.155,19.337,53.176,18.769,53.22,18.205z"/>
			<path fill="#0B83C2" d="M26.815,32.056c-0.544,0-1.09,0.017-1.633-0.005c-0.433-0.018-0.864-0.078-1.294-0.132
				c-0.554-0.07-1.108-0.139-1.659-0.232c-0.481-0.081-0.96-0.183-1.434-0.299c-0.557-0.136-1.113-0.277-1.659-0.451
				c-0.64-0.204-1.275-0.429-1.901-0.674c-1.157-0.452-2.268-1.001-3.344-1.624c-1.116-0.646-2.181-1.365-3.18-2.181
				c-0.348-0.285-0.692-0.574-1.033-0.867c-0.087-0.075-0.169-0.163-0.229-0.26c-0.136-0.22-0.006-0.454,0.251-0.449
				c0.103,0.002,0.216,0.032,0.306,0.083c1.127,0.636,2.27,1.242,3.47,1.728c0.968,0.392,1.944,0.767,2.934,1.094
				c0.94,0.311,1.897,0.581,2.86,0.813c0.858,0.207,1.731,0.356,2.603,0.496c0.75,0.12,1.508,0.193,2.262,0.283
				c1.346,0.161,2.699,0.182,4.05,0.139c0.984-0.031,1.966-0.132,2.946-0.232c0.717-0.073,1.432-0.177,2.141-0.303
				c0.648-0.115,1.291-0.267,1.931-0.422c0.639-0.155,1.278-0.317,1.907-0.51c0.688-0.21,1.366-0.451,2.043-0.694
				c0.465-0.167,0.917-0.371,1.382-0.538c0.13-0.047,0.293-0.053,0.429-0.022c0.176,0.039,0.328,0.149,0.365,0.35
				c0.046,0.246-0.04,0.447-0.239,0.591c-0.308,0.223-0.611,0.456-0.938,0.648c-0.647,0.38-1.295,0.764-1.968,1.093
				c-0.694,0.34-1.411,0.639-2.133,0.913c-0.701,0.266-1.416,0.505-2.138,0.706c-0.731,0.203-1.476,0.353-2.219,0.51
				c-0.47,0.1-0.944,0.183-1.42,0.25c-0.461,0.065-0.925,0.114-1.389,0.144c-0.689,0.045-1.379,0.068-2.069,0.1
				C26.816,32.089,26.816,32.072,26.815,32.056z"/>
			<path fill="#0B83C2" d="M100.108,18.135c0,1.665,0,3.329,0,4.994c0,0.078,0.004,0.156-0.003,0.233
				c-0.019,0.199-0.124,0.334-0.318,0.342c-0.404,0.016-0.809,0.02-1.212-0.001c-0.228-0.012-0.339-0.165-0.378-0.405
				c-0.03-0.183-0.064-0.366-0.102-0.548c-0.029-0.137-0.103-0.158-0.242-0.07c-0.236,0.149-0.464,0.31-0.705,0.45
				c-0.765,0.445-1.583,0.743-2.463,0.862c-0.739,0.1-1.474,0.102-2.187-0.144c-0.83-0.286-1.38-0.864-1.678-1.686
				c-0.18-0.496-0.232-1.012-0.233-1.534c-0.002-2.489-0.001-4.978-0.001-7.467c0-0.568,0.078-0.646,0.644-0.646
				c0.366,0,0.731,0.001,1.097,0c0.286-0.001,0.457,0.1,0.467,0.418c0.003,0.093,0.011,0.186,0.011,0.279
				c0.001,2.31,0,4.62,0.001,6.931c0,0.447,0.072,0.884,0.275,1.284c0.258,0.508,0.709,0.739,1.256,0.807
				c0.636,0.078,1.249-0.028,1.857-0.209c0.532-0.158,1.015-0.413,1.496-0.682c0.17-0.095,0.23-0.209,0.229-0.406
				c-0.007-2.59-0.004-5.18-0.004-7.771c0-0.078-0.001-0.156,0.001-0.233c0.005-0.27,0.125-0.409,0.392-0.414
				c0.467-0.009,0.933-0.01,1.4-0.001c0.285,0.006,0.398,0.144,0.398,0.46c0.002,1.276,0.001,2.551,0.001,3.827
				C100.108,17.248,100.108,17.691,100.108,18.135z"/>
			<path fill="#263241" d="M41.86,20.01c0.09,0.009,0.142,0.019,0.195,0.018c0.648-0.009,1.29,0.064,1.92,0.205
				c0.568,0.127,1.118,0.322,1.626,0.616c0.257,0.149,0.386,0.372,0.385,0.67c-0.001,0.482,0.002,0.965-0.001,1.447
				c-0.002,0.409-0.276,0.581-0.637,0.397c-1.13-0.578-2.337-0.833-3.598-0.806c-1.122,0.024-2.198,0.279-3.205,0.792
				c-0.107,0.055-0.233,0.109-0.347,0.103c-0.169-0.008-0.306-0.194-0.308-0.387c-0.005-0.607-0.018-1.214,0.005-1.821
				c0.011-0.302,0.126-0.585,0.306-0.841c1.118-1.595,2.23-3.194,3.343-4.792c0.18-0.259,0.357-0.52,0.568-0.828
				c-0.14-0.013-0.227-0.028-0.313-0.028c-0.98-0.002-1.961-0.001-2.941-0.002c-0.085,0-0.172-0.004-0.254-0.022
				c-0.229-0.05-0.337-0.172-0.34-0.404c-0.006-0.482-0.006-0.965,0-1.447c0.003-0.263,0.161-0.413,0.428-0.413
				c2.218-0.001,4.435-0.002,6.653,0c0.306,0,0.418,0.118,0.421,0.43c0.003,0.358-0.009,0.716,0.004,1.074
				c0.009,0.253-0.052,0.475-0.195,0.68c-0.403,0.58-0.804,1.161-1.208,1.739c-0.809,1.157-1.62,2.312-2.43,3.469
				C41.911,19.894,41.896,19.938,41.86,20.01z"/>
			<path fill="#0B83C2" d="M105.924,24.043c-0.818,0.022-1.608-0.099-2.384-0.3c-0.321-0.083-0.628-0.219-0.94-0.335
				c-0.269-0.1-0.411-0.298-0.413-0.584c-0.002-0.264-0.003-0.529,0.018-0.792c0.022-0.272,0.167-0.358,0.434-0.283
				c0.32,0.09,0.636,0.2,0.961,0.267c0.501,0.103,1.005,0.195,1.512,0.256c0.376,0.045,0.76,0.053,1.139,0.042
				c0.492-0.014,0.965-0.109,1.392-0.39c0.697-0.459,0.887-1.836-0.083-2.293c-0.475-0.224-0.959-0.431-1.446-0.629
				c-0.638-0.26-1.296-0.476-1.922-0.762c-0.724-0.331-1.31-0.835-1.626-1.591c-0.458-1.095-0.326-2.41,0.557-3.313
				c0.462-0.473,1.034-0.778,1.674-0.962c0.714-0.205,1.442-0.221,2.172-0.174c0.674,0.043,1.336,0.176,1.976,0.402
				c0.124,0.044,0.25,0.084,0.369,0.139c0.232,0.108,0.353,0.294,0.354,0.553c0,0.233,0.004,0.467-0.001,0.7
				c-0.006,0.29-0.127,0.404-0.413,0.349c-0.334-0.063-0.661-0.162-0.993-0.237c-0.761-0.171-1.531-0.259-2.31-0.159
				c-0.266,0.034-0.535,0.094-0.787,0.186c-0.672,0.246-0.86,0.863-0.758,1.474c0.07,0.42,0.345,0.697,0.705,0.872
				c0.487,0.237,0.99,0.443,1.49,0.65c0.622,0.258,1.256,0.487,1.871,0.759c0.449,0.198,0.855,0.477,1.182,0.851
				c0.523,0.598,0.661,1.317,0.626,2.082c-0.072,1.556-1.09,2.509-2.375,2.944C107.258,23.986,106.592,24.065,105.924,24.043z"/>
			<path fill="#0B83C2" d="M122.068,23.943c-0.643,0.043-1.254-0.033-1.846-0.195c-1.288-0.352-2.278-1.091-2.883-2.306
				c-0.336-0.674-0.527-1.39-0.604-2.135c-0.084-0.804-0.088-1.607,0.02-2.412c0.083-0.619,0.23-1.216,0.483-1.787
				c0.444-1,1.141-1.764,2.122-2.257c0.783-0.393,1.621-0.557,2.494-0.574c0.656-0.013,1.304,0.025,1.939,0.196
				c0.268,0.073,0.531,0.166,0.791,0.265c0.196,0.074,0.317,0.22,0.318,0.442c0.002,0.302,0.017,0.605-0.002,0.905
				c-0.018,0.284-0.185,0.38-0.467,0.307c-0.225-0.058-0.451-0.11-0.677-0.164c-0.75-0.181-1.51-0.202-2.267-0.077
				c-0.963,0.16-1.733,0.612-2.137,1.555c-0.182,0.424-0.293,0.869-0.329,1.325c-0.041,0.533-0.064,1.071-0.047,1.605
				c0.023,0.731,0.14,1.446,0.495,2.106c0.302,0.561,0.754,0.942,1.344,1.152c0.714,0.254,1.452,0.324,2.201,0.203
				c0.466-0.075,0.927-0.181,1.39-0.273c0.076-0.015,0.152-0.031,0.23-0.038c0.231-0.023,0.354,0.082,0.358,0.312
				c0.004,0.272-0.014,0.545,0.005,0.816c0.019,0.268-0.107,0.436-0.328,0.532c-0.269,0.116-0.545,0.23-0.828,0.3
				C123.252,23.892,122.655,23.995,122.068,23.943z"/>
			<path fill="#0B83C2" d="M114.394,18.127c0,1.657,0,3.314,0,4.97c0,0.531-0.09,0.619-0.625,0.619c-0.373,0-0.747,0.003-1.12-0.001
				c-0.324-0.003-0.426-0.098-0.462-0.422c-0.009-0.085-0.011-0.171-0.011-0.256c-0.001-3.282-0.001-6.565,0-9.847
				c0-0.609,0.069-0.677,0.685-0.677c0.334,0,0.669-0.001,1.003,0c0.411,0.001,0.529,0.114,0.529,0.526
				C114.395,14.736,114.394,16.432,114.394,18.127z"/>
			<path fill="#0B83C2" d="M41.97,24.151c0.541,0.027,1.076,0.052,1.6,0.183c0.179,0.045,0.355,0.108,0.527,0.177
				c0.197,0.08,0.286,0.238,0.314,0.45c0.074,0.556-0.005,1.102-0.119,1.641c-0.153,0.721-0.394,1.418-0.734,2.074
				c-0.355,0.685-0.782,1.32-1.383,1.82c-0.041,0.035-0.086,0.065-0.131,0.096c-0.116,0.08-0.243,0.129-0.363,0.027
				c-0.119-0.101-0.088-0.247-0.043-0.369c0.219-0.594,0.46-1.181,0.669-1.779c0.225-0.644,0.414-1.299,0.466-1.984
				c0.037-0.48-0.238-0.783-0.779-0.854c-0.673-0.088-1.346-0.093-2.021-0.019c-0.563,0.062-1.128,0.105-1.692,0.155
				c-0.046,0.004-0.093,0.003-0.14,0.002c-0.108-0.002-0.232,0.012-0.269-0.125c-0.035-0.128-0.006-0.255,0.102-0.336
				c0.154-0.116,0.315-0.226,0.484-0.319c0.643-0.354,1.329-0.594,2.057-0.694C40.997,24.229,41.484,24.198,41.97,24.151z"/>
			<path fill="#0B83C2" d="M113.295,7.896c0.425,0.018,0.848,0.116,1.131,0.479c0.25,0.321,0.278,0.698,0.233,1.085
				c-0.07,0.612-0.558,1.023-1.084,1.073c-0.508,0.049-0.986,0.004-1.341-0.409c-0.117-0.136-0.214-0.311-0.26-0.484
				c-0.156-0.584-0.024-1.277,0.574-1.597C112.788,7.915,113.038,7.89,113.295,7.896z"/>
		</g>
	</g>
</g>
</svg>
