<?xml version="1.0" encoding="utf-8"?>
<!-- Generator: Adobe Illustrator 21.0.0, SVG Export Plug-In . SVG Version: 6.00 Build 0)  -->
<svg version="1.1" xmlns="http://www.w3.org/2000/svg" xmlns:xlink="http://www.w3.org/1999/xlink" x="0px" y="0px"
	 viewBox="0 0 125 40" enable-background="new 0 0 125 40" xml:space="preserve">
<g id="bg" display="none">
	<rect display="inline" fill="#FFFFFF" width="125" height="40"/>
</g>
<g id="icons">
	<g>
		<rect x="0" y="31.374" fill="#E10613" width="8.251" height="2.501"/>
		<rect x="0" y="28.124" fill="#E10613" width="8.251" height="2.501"/>
		<rect x="0" y="24.875" fill="#E10613" width="8.251" height="2.5"/>
		<rect x="0" y="21.625" fill="#F1977A" width="8.251" height="2.5"/>
		<rect x="0" y="18.375" fill="#F1977A" width="8.251" height="2.499"/>
		<rect x="9.25" y="31.374" fill="#FFEB00" width="8.251" height="2.501"/>
		<rect x="9.25" y="28.124" fill="#FFEB00" width="8.251" height="2.501"/>
		<rect x="9.25" y="24.875" fill="#FFEB00" width="8.251" height="2.5"/>
		<rect x="18.5" y="31.374" fill="#E4007E" width="8.251" height="2.501"/>
		<rect x="18.5" y="28.124" fill="#E4007E" width="8.251" height="2.501"/>
		<rect x="18.5" y="24.875" fill="#E4007E" width="8.251" height="2.5"/>
		<rect x="18.5" y="21.625" fill="#F09CC2" width="8.251" height="2.5"/>
		<rect x="18.5" y="18.375" fill="#F09CC2" width="8.251" height="2.499"/>
		<rect x="18.5" y="15.124" fill="#F09CC2" width="8.251" height="2.5"/>
		<rect x="18.5" y="11.875" fill="#F09CC2" width="8.251" height="2.5"/>
		<rect x="27.75" y="31.374" fill="#C6D200" width="8.251" height="2.501"/>
		<rect x="27.75" y="28.124" fill="#C6D200" width="8.251" height="2.501"/>
		<rect x="27.75" y="24.875" fill="#C6D200" width="8.251" height="2.5"/>
		<rect x="27.75" y="21.625" fill="#E3E799" width="8.251" height="2.5"/>
		<rect x="27.75" y="18.375" fill="#E3E799" width="8.251" height="2.499"/>
		<rect x="37.001" y="31.374" fill="#40BEEE" width="8.25" height="2.501"/>
		<rect x="37.001" y="28.124" fill="#40BEEE" width="8.25" height="2.501"/>
		<rect x="37.001" y="24.874" fill="#40BEEE" width="8.25" height="2.5"/>
		<rect x="37.001" y="21.624" fill="#BBE2F8" width="8.25" height="2.5"/>
		<rect x="37.001" y="18.374" fill="#BBE2F8" width="8.25" height="2.501"/>
		<rect x="37.001" y="15.124" fill="#BBE2F8" width="8.25" height="2.499"/>
		<rect x="37.001" y="11.874" fill="#BBE2F8" width="8.25" height="2.499"/>
		<rect x="37.001" y="8.623" fill="#BBE2F8" width="8.25" height="2.501"/>
		<g>
			<path fill="#000100" d="M48.5,6.124h6.185c6.228,0,6.815,2.179,6.815,10.251v8.249c0,7.111-1.43,9.25-7.5,9.25h-5.5V6.124z
				 M52.249,30.646h1.938c2.845,0,3.311-1.5,3.311-6.266v-9.531c0-4.113-0.352-5.497-3.617-5.497h-1.631V30.646z"/>
			<path fill="#000100" d="M62.999,6.124h10.5v3.298h-6.751v8.701h6.25v3.25h-6.25v9.204h6.751v3.297h-10.5V6.124z"/>
			<path fill="#000100" d="M75,6.124h10.499v3.298H78.75v8.701H85v3.25H78.75v9.204h6.749v3.297H75V6.124z"/>
			<path fill="#000100" d="M100.748,6.124h10.501v3.298h-6.75v8.701h6.25v3.25h-6.25v9.204h6.75v3.297h-10.501V6.124z"/>
			<path fill="#000100" d="M86.999,30.626l8.639-21.25h-8.639v-3.25h12.248v3.25l-8.49,21.25h8.49v3.25l-12.248-0.001V30.626z"/>
			<path fill="#000100" d="M112.749,6.125h6c5.612,0,6.004,1.43,6.004,7.503c0,3.727-0.351,5.549-3.503,6.509l0,0
				c2.613,0.269,3.509,1.633,3.509,4.245v6.034c0,1.001,0.007,2.304,0.241,3.457h-3.75c-0.386-0.693-0.248-1.374-0.248-2.49v-6.264
				c0-2.614-0.496-3.246-3.034-3.246h-1.47v12.001l-3.749-0.001V6.125z M116.499,18.375h1.163c3.037,0,3.5-0.375,3.5-4.525
				c0-4.113-0.368-4.476-2.749-4.476h-1.914V18.375z"/>
		</g>
	</g>
</g>
</svg>
