<?xml version="1.0" encoding="utf-8"?>
<!-- Generator: Adobe Illustrator 21.1.0, SVG Export Plug-In . SVG Version: 6.00 Build 0)  -->
<svg version="1.1" xmlns="http://www.w3.org/2000/svg" xmlns:xlink="http://www.w3.org/1999/xlink" x="0px" y="0px"
	 viewBox="0 0 125 40" enable-background="new 0 0 125 40" xml:space="preserve">
<g id="bg" display="none">
	<rect display="inline" fill="#FFFFFF" width="125" height="40"/>
</g>
<g id="icons">
	<g>
		<path fill="#707171" d="M62.76,17.889c-2.538,0-4.607,1.93-4.607,4.589c0,2.642,2.069,4.589,4.607,4.589
			c2.538,0,4.607-1.947,4.607-4.589C67.366,19.818,65.298,17.889,62.76,17.889z M62.76,25.259c-1.391,0-2.59-1.147-2.59-2.781
			c0-1.651,1.2-2.781,2.59-2.781c1.391,0,2.59,1.13,2.59,2.781C65.35,24.112,64.15,25.259,62.76,25.259z M52.71,17.889
			c-2.538,0-4.607,1.93-4.607,4.589c0,2.642,2.069,4.589,4.607,4.589c2.538,0,4.607-1.947,4.607-4.589
			C57.317,19.818,55.248,17.889,52.71,17.889z M52.71,25.259c-1.391,0-2.59-1.147-2.59-2.781c0-1.651,1.199-2.781,2.59-2.781
			c1.391,0,2.59,1.13,2.59,2.781C55.3,24.112,54.101,25.259,52.71,25.259z M40.756,19.297v1.947h4.659
			c-0.139,1.095-0.504,1.895-1.06,2.451c-0.678,0.678-1.738,1.425-3.598,1.425c-2.868,0-5.111-2.312-5.111-5.18
			s2.242-5.18,5.111-5.18c1.547,0,2.677,0.608,3.512,1.391l1.373-1.373c-1.165-1.112-2.712-1.964-4.885-1.964
			c-3.929,0-7.232,3.199-7.232,7.127c0,3.929,3.303,7.127,7.232,7.127c2.121,0,3.72-0.695,4.972-1.999
			c1.286-1.286,1.686-3.094,1.686-4.554c0-0.452-0.035-0.869-0.104-1.217H40.756z M89.645,20.809
			c-0.382-1.026-1.547-2.92-3.929-2.92c-2.364,0-4.328,1.86-4.328,4.589c0,2.573,1.947,4.589,4.554,4.589
			c2.103,0,3.32-1.286,3.824-2.034l-1.564-1.043c-0.521,0.765-1.234,1.269-2.26,1.269c-1.026,0-1.756-0.469-2.225-1.391l6.137-2.538
			L89.645,20.809z M83.387,22.339c-0.052-1.773,1.373-2.677,2.399-2.677c0.8,0,1.478,0.4,1.704,0.973L83.387,22.339z M78.397,26.789
			h2.016V13.3h-2.016V26.789z M75.095,18.914h-0.069c-0.452-0.539-1.321-1.026-2.416-1.026c-2.295,0-4.398,2.016-4.398,4.607
			c0,2.573,2.103,4.572,4.398,4.572c1.095,0,1.964-0.487,2.416-1.043h0.069v0.661c0,1.756-0.939,2.694-2.451,2.694
			c-1.234,0-1.999-0.887-2.312-1.634l-1.756,0.73c0.504,1.217,1.843,2.712,4.068,2.712c2.364,0,4.363-1.391,4.363-4.781v-8.24
			h-1.912V18.914z M72.783,25.259c-1.391,0-2.555-1.165-2.555-2.764c0-1.617,1.165-2.799,2.555-2.799
			c1.373,0,2.451,1.182,2.451,2.799C75.234,24.095,74.156,25.259,72.783,25.259z M99.09,13.3h-4.825v13.489h2.013v-5.111h2.811
			c2.232,0,4.425-1.616,4.425-4.189S101.322,13.3,99.09,13.3z M99.142,19.801h-2.863v-4.624h2.863c1.505,0,2.36,1.246,2.36,2.312
			C101.502,18.535,100.648,19.801,99.142,19.801z M111.585,17.864c-1.458,0-2.968,0.642-3.592,2.065l1.788,0.746
			c0.382-0.746,1.093-0.989,1.84-0.989c1.041,0,2.1,0.625,2.117,1.735v0.139c-0.364-0.208-1.145-0.521-2.1-0.521
			c-1.926,0-3.887,1.059-3.887,3.037c0,1.805,1.579,2.968,3.349,2.968c1.354,0,2.1-0.607,2.569-1.319h0.069v1.041h1.944v-5.172
			C115.681,19.2,113.893,17.864,111.585,17.864z M111.342,25.257c-0.66,0-1.579-0.33-1.579-1.145c0-1.041,1.145-1.44,2.135-1.44
			c0.885,0,1.302,0.191,1.84,0.451C113.581,24.372,112.505,25.257,111.342,25.257z M122.761,18.159l-2.308,5.848h-0.069
			l-2.395-5.848h-2.169l3.592,8.174l-2.048,4.547h2.1L125,18.159H122.761z M104.626,26.789h2.013V13.3h-2.013V26.789z"/>
		<g>
			
				<linearGradient id="SVGID_1_" gradientUnits="userSpaceOnUse" x1="12.7618" y1="-1285.8165" x2="-5.3468" y2="-1303.925" gradientTransform="matrix(1 0 0 -1 0 -1278)">
				<stop  offset="0" style="stop-color:#00A0FF"/>
				<stop  offset="0.0066" style="stop-color:#00A1FF"/>
				<stop  offset="0.2601" style="stop-color:#00BEFF"/>
				<stop  offset="0.5122" style="stop-color:#00D2FF"/>
				<stop  offset="0.7604" style="stop-color:#00DFFF"/>
				<stop  offset="1" style="stop-color:#00E3FF"/>
			</linearGradient>
			<path fill="url(#SVGID_1_)" d="M0.499,6.552C0.186,6.884,0,7.4,0,8.068v23.864c0,0.669,0.186,1.184,0.499,1.516l0.08,0.078
				l13.368-13.368V20v-0.158L0.579,6.474L0.499,6.552z"/>
			
				<linearGradient id="SVGID_2_" gradientUnits="userSpaceOnUse" x1="25.7474" y1="-1298.0005" x2="-0.3616" y2="-1298.0005" gradientTransform="matrix(1 0 0 -1 0 -1278)">
				<stop  offset="0" style="stop-color:#FFE000"/>
				<stop  offset="0.4087" style="stop-color:#FFBD00"/>
				<stop  offset="0.7754" style="stop-color:#FFA500"/>
				<stop  offset="1" style="stop-color:#FF9C00"/>
			</linearGradient>
			<path fill="url(#SVGID_2_)" d="M18.403,24.616l-4.456-4.458V20v-0.158l4.457-4.457l0.1,0.057l5.279,3
				c1.508,0.857,1.508,2.259,0,3.116l-5.279,3L18.403,24.616z"/>
			
				<linearGradient id="SVGID_3_" gradientUnits="userSpaceOnUse" x1="16.0282" y1="-1300.4766" x2="-8.5285" y2="-1325.0332" gradientTransform="matrix(1 0 0 -1 0 -1278)">
				<stop  offset="0" style="stop-color:#FF3A44"/>
				<stop  offset="1" style="stop-color:#C31162"/>
			</linearGradient>
			<path fill="url(#SVGID_3_)" d="M18.504,24.558L13.947,20L0.499,33.448c0.497,0.526,1.318,0.591,2.242,0.066L18.504,24.558"/>
			
				<linearGradient id="SVGID_4_" gradientUnits="userSpaceOnUse" x1="-2.8867" y1="-1276.6086" x2="8.0789" y2="-1287.5742" gradientTransform="matrix(1 0 0 -1 0 -1278)">
				<stop  offset="0" style="stop-color:#32A071"/>
				<stop  offset="0.0685" style="stop-color:#2DA771"/>
				<stop  offset="0.4762" style="stop-color:#15CF74"/>
				<stop  offset="0.8009" style="stop-color:#06E775"/>
				<stop  offset="1" style="stop-color:#00F076"/>
			</linearGradient>
			<path fill="url(#SVGID_4_)" d="M18.504,15.442L2.742,6.486c-0.925-0.525-1.745-0.46-2.242,0.066L13.947,20L18.504,15.442z"/>
			<g>
				<path opacity="0.2" enable-background="new    " d="M18.404,24.457L2.742,33.356c-0.876,0.498-1.659,0.465-2.162,0.012l0,0
					l-0.08,0.08l0,0l0.08,0.078l0.001-0.001c0.503,0.453,1.286,0.487,2.162-0.012l15.763-8.956L18.404,24.457z"/>
				<path opacity="0.12" enable-background="new    " d="M0.499,33.291C0.186,32.958,0,32.443,0,31.775v0.158
					c0,0.668,0.186,1.184,0.499,1.516l0.08-0.08L0.499,33.291z"/>
			</g>
			<path opacity="0.12" enable-background="new    " d="M23.784,21.4l-5.38,3.057l0.1,0.1l5.279-3
				c0.754-0.428,1.131-0.993,1.131-1.557l0,0C24.852,20.511,24.468,21.012,23.784,21.4z"/>
			<path opacity="0.25" fill="#FFFFFF" enable-background="new    " d="M2.742,6.644L23.784,18.6c0.684,0.388,1.068,0.889,1.131,1.4
				l0,0c0.001-0.565-0.377-1.13-1.131-1.558L2.742,6.486C1.234,5.63,0,6.341,0,8.069v0.158C0,6.499,1.234,5.787,2.742,6.644z"/>
		</g>
	</g>
</g>
</svg>
