<?xml version="1.0" encoding="utf-8"?>
<!-- Generator: Adobe Illustrator 21.1.0, SVG Export Plug-In . SVG Version: 6.00 Build 0)  -->
<svg version="1.1" xmlns="http://www.w3.org/2000/svg" xmlns:xlink="http://www.w3.org/1999/xlink" x="0px" y="0px"
	 viewBox="0 0 125 40" enable-background="new 0 0 125 40" xml:space="preserve">
<g id="bg" display="none">
	<rect display="inline" fill="#FFFFFF" width="125" height="40"/>
</g>
<g id="icons">
	<g>
		<g>
			<g id="Clipped">
				<defs>
					<filter id="Adobe_OpacityMaskFilter" filterUnits="userSpaceOnUse" x="0" y="7.237" width="25.526" height="25.526">
						<feColorMatrix  type="matrix" values="1 0 0 0 0  0 1 0 0 0  0 0 1 0 0  0 0 0 1 0"/>
					</filter>
				</defs>
				<mask maskUnits="userSpaceOnUse" x="0" y="7.237" width="25.526" height="25.526" id="mask-2_1_">
					<g filter="url(#Adobe_OpacityMaskFilter)">
						<rect id="path-1_1_" x="0" y="7.237" fill="#FFFFFF" width="25.526" height="25.526"/>
					</g>
				</mask>
				<g mask="url(#mask-2_1_)">
					<defs>
						<filter id="Adobe_OpacityMaskFilter_1_" filterUnits="userSpaceOnUse" x="0" y="7.237" width="25.526" height="25.526">
							<feColorMatrix  type="matrix" values="1 0 0 0 0  0 1 0 0 0  0 0 1 0 0  0 0 0 1 0"/>
						</filter>
					</defs>
					<mask maskUnits="userSpaceOnUse" x="0" y="7.237" width="25.526" height="25.526" id="mask-4_1_">
						<g filter="url(#Adobe_OpacityMaskFilter_1_)">
							<path id="path-3_1_" fill="#FFFFFF" d="M7.831,7.237c-0.254,0-0.507,0-0.761,0.002C6.814,7.24,6.557,7.243,6.3,7.25
								c-0.56,0.015-1.124,0.048-1.678,0.147C4.062,7.498,3.539,7.663,3.029,7.922c-0.501,0.256-0.96,0.588-1.357,0.986
								c-0.398,0.398-0.73,0.856-0.986,1.357c-0.26,0.51-0.424,1.033-0.525,1.595c-0.099,0.553-0.132,1.117-0.147,1.677
								c-0.007,0.257-0.01,0.513-0.011,0.77C0,14.552,0,14.796,0,15.041v0.181v9.557v0.181c0,0.244,0,0.489,0.002,0.733
								c0.002,0.257,0.004,0.513,0.011,0.77c0.015,0.559,0.048,1.123,0.147,1.677c0.1,0.562,0.266,1.084,0.525,1.595
								c0.256,0.501,0.588,0.96,0.986,1.357s0.856,0.731,1.357,0.986c0.51,0.26,1.033,0.424,1.594,0.525
								c0.553,0.099,1.118,0.133,1.677,0.147c0.257,0.007,0.513,0.01,0.77,0.011c0.254,0.002,0.507,0.002,0.761,0.002h0.154h9.557
								h0.154c0.254,0,0.507,0,0.761-0.002c0.257-0.002,0.513-0.004,0.77-0.011c0.56-0.015,1.124-0.048,1.677-0.147
								c0.561-0.1,1.083-0.266,1.594-0.525c0.501-0.256,0.96-0.588,1.357-0.986c0.398-0.398,0.731-0.856,0.986-1.357
								c0.26-0.51,0.424-1.033,0.525-1.595c0.099-0.553,0.132-1.117,0.147-1.677c0.007-0.257,0.01-0.513,0.011-0.77
								c0.001-0.244,0.002-0.49,0.002-0.734v-9.916c0-0.244,0-0.49-0.002-0.734c-0.002-0.257-0.004-0.513-0.011-0.77
								c-0.015-0.559-0.048-1.123-0.147-1.677c-0.1-0.562-0.266-1.084-0.525-1.595c-0.256-0.501-0.588-0.96-0.986-1.357
								c-0.398-0.398-0.856-0.731-1.357-0.986c-0.51-0.26-1.033-0.424-1.594-0.525c-0.553-0.099-1.118-0.133-1.677-0.147
								c-0.257-0.007-0.513-0.01-0.77-0.011c-0.254-0.002-0.507-0.002-0.761-0.002H7.831z"/>
						</g>
					</mask>
					
						<linearGradient id="Rectangle-path_18_" gradientUnits="userSpaceOnUse" x1="-385.5176" y1="-171.1712" x2="-385.5176" y2="-172.1856" gradientTransform="matrix(25.164 0 0 -25.164 9713.9277 -4300.1401)">
						<stop  offset="0" style="stop-color:#EF4DB7"/>
						<stop  offset="1" style="stop-color:#C643FD"/>
					</linearGradient>
					
						<rect id="Rectangle-path" x="0" y="7.237" mask="url(#mask-4_1_)" fill="url(#Rectangle-path_18_)" width="25.526" height="25.526"/>
				</g>
			</g>
			<g id="Artboard-Copy-2">
				<g id="US_UK_iTunes_Store_Buy_Lockup_RGB_blk">
					<path id="Shape_3_" d="M31.391,14.125c0-0.604,0.489-1.084,1.094-1.084c0.613,0,1.102,0.482,1.102,1.084
						c0,0.594-0.489,1.076-1.102,1.076C31.88,15.201,31.391,14.719,31.391,14.125z M31.539,16.547h1.889v9.2h-1.889V16.547z
						 M38.455,25.748V14.815h-3.866v-1.688h9.681v1.688h-3.857v10.931h-1.959V25.748z M52.163,25.748h-1.811v-1.583h-0.044
						c-0.524,1.102-1.442,1.688-2.851,1.688c-2.002,0-3.227-1.294-3.227-3.402v-5.903h1.889v5.536c0,1.399,0.664,2.142,1.967,2.142
						c1.364,0,2.186-0.944,2.186-2.379v-5.299h1.889v9.201H52.163z M54.02,16.547h1.801v1.565h0.045
						c0.551-1.102,1.478-1.67,2.895-1.67c2.029,0,3.191,1.304,3.191,3.41v5.895h-1.898V20.22c0-1.382-0.638-2.152-1.967-2.152
						c-1.355,0-2.177,0.962-2.177,2.379v5.3h-1.889v-9.201H54.02z M71.654,23.045c-0.254,1.671-1.881,2.816-3.961,2.816
						c-2.676,0-4.338-1.793-4.338-4.67c0-2.886,1.671-4.758,4.259-4.758c2.545,0,4.145,1.749,4.145,4.539v0.647h-6.497v0.114
						c0,1.574,0.989,2.606,2.474,2.606c1.05,0,1.873-0.498,2.126-1.294H71.654z M65.271,20.299h4.599
						c-0.044-1.408-0.944-2.335-2.256-2.335C66.311,17.964,65.367,18.909,65.271,20.299z M76.652,16.442
						c2.038,0,3.498,1.128,3.541,2.754h-1.775c-0.078-0.814-0.77-1.312-1.819-1.312c-1.024,0-1.706,0.472-1.706,1.189
						c0,0.551,0.454,0.918,1.409,1.154l1.547,0.359c1.854,0.445,2.554,1.128,2.554,2.475c0,1.662-1.574,2.799-3.822,2.799
						c-2.169,0-3.629-1.111-3.77-2.79h1.872c0.132,0.884,0.84,1.355,1.985,1.355c1.128,0,1.837-0.464,1.837-1.198
						c0-0.569-0.35-0.874-1.312-1.12l-1.644-0.402c-1.662-0.402-2.501-1.251-2.501-2.528C73.049,17.552,74.509,16.442,76.652,16.442
						z M87.097,22.232c0.14,1.251,1.355,2.072,3.018,2.072c1.591,0,2.737-0.823,2.737-1.951c0-0.979-0.692-1.565-2.326-1.967
						l-1.635-0.394c-2.318-0.56-3.394-1.644-3.394-3.402c0-2.178,1.898-3.673,4.591-3.673c2.668,0,4.496,1.495,4.557,3.673h-1.907
						c-0.114-1.26-1.154-2.021-2.676-2.021s-2.562,0.77-2.562,1.889c0,0.892,0.664,1.416,2.292,1.819l1.391,0.341
						c2.589,0.613,3.664,1.652,3.664,3.499c0,2.362-1.881,3.84-4.872,3.84c-2.799,0-4.688-1.443-4.809-3.726h1.933V22.232z
						 M98.818,14.369v2.178h1.749v1.495h-1.749v5.072c0,0.787,0.35,1.154,1.12,1.154c0.192,0,0.498-0.026,0.621-0.044v1.486
						c-0.21,0.053-0.63,0.087-1.05,0.087c-1.862,0-2.589-0.7-2.589-2.483v-5.274h-1.338v-1.495h1.338v-2.178h1.898V14.369z
						 M101.343,21.147c0-2.895,1.706-4.714,4.365-4.714c2.667,0,4.364,1.819,4.364,4.714c0,2.903-1.688,4.714-4.364,4.714
						C103.031,25.861,101.343,24.051,101.343,21.147z M108.148,21.147c0-1.985-0.909-3.157-2.44-3.157s-2.44,1.181-2.44,3.157
						c0,1.993,0.909,3.157,2.44,3.157S108.148,23.141,108.148,21.147z M111.527,16.547h1.801v1.565h0.045
						c0.288-1.041,1.127-1.662,2.212-1.662c0.272,0,0.498,0.036,0.647,0.07v1.766c-0.148-0.061-0.481-0.114-0.848-0.114
						c-1.215,0-1.967,0.822-1.967,2.116v5.456h-1.889v-9.199H111.527z M124.895,23.045c-0.254,1.671-1.881,2.816-3.961,2.816
						c-2.676,0-4.338-1.793-4.338-4.67c0-2.886,1.671-4.758,4.259-4.758c2.545,0,4.145,1.749,4.145,4.539v0.647h-6.497v0.114
						c0,1.574,0.989,2.606,2.474,2.606c1.05,0,1.873-0.498,2.126-1.294H124.895z M118.511,20.299h4.599
						c-0.044-1.408-0.944-2.335-2.256-2.335C119.552,17.964,118.607,18.909,118.511,20.299z"/>
					<g id="Group_2_">
						<g id="Clipped_2_">
							<defs>
								<filter id="Adobe_OpacityMaskFilter_2_" filterUnits="userSpaceOnUse" x="12.758" y="21.649" width="5.967" height="6.798">
									<feColorMatrix  type="matrix" values="1 0 0 0 0  0 1 0 0 0  0 0 1 0 0  0 0 0 1 0"/>
								</filter>
							</defs>
							<mask maskUnits="userSpaceOnUse" x="12.758" y="21.649" width="5.967" height="6.798" id="mask-12_2_">
								<g filter="url(#Adobe_OpacityMaskFilter_2_)">
									<rect id="path-11_2_" x="0" y="7.237" fill="#FFFFFF" width="25.526" height="25.526"/>
								</g>
							</mask>
							<g mask="url(#mask-12_2_)">
								<g transform="translate(12.000000, 14.000000)">
									<defs>
										<filter id="Adobe_OpacityMaskFilter_3_" filterUnits="userSpaceOnUse" x="0.758" y="7.649" width="5.967" height="6.798">
											<feColorMatrix  type="matrix" values="1 0 0 0 0  0 1 0 0 0  0 0 1 0 0  0 0 0 1 0"/>
										</filter>
									</defs>
									<mask maskUnits="userSpaceOnUse" x="0.758" y="7.649" width="5.967" height="6.798" id="mask-14_2_">
										<g filter="url(#Adobe_OpacityMaskFilter_3_)">
											<path id="path-13_2_" fill="#FFFFFF" d="M0.758,10.532l4.466,3.244c0.236,0.172,0.478,0.338,0.724,0.497
												c0.084,0.055,0.173,0.1,0.268,0.133c0.011,0.004,0.022,0.007,0.034,0.011c0.069,0.02,0.131,0.029,0.191,0.025
												c0.058-0.005,0.11-0.022,0.151-0.054c0.043-0.03,0.075-0.074,0.097-0.128c0.022-0.055,0.033-0.117,0.036-0.189
												c0-0.012,0-0.023,0-0.036c-0.001-0.1-0.017-0.199-0.044-0.296c-0.075-0.283-0.158-0.564-0.249-0.842l-1.706-5.25
												L0.758,10.532z"/>
										</g>
									</mask>
									
										<radialGradient id="Rectangle-path_19_" cx="-347.6977" cy="-304.2147" r="0.0045" gradientTransform="matrix(5.882 0 0 -5.882 2033.725 -1778.8628)" gradientUnits="userSpaceOnUse">
										<stop  offset="0" style="stop-color:#F9E3FB"/>
										<stop  offset="0.7459" style="stop-color:#F9E3FB"/>
										<stop  offset="0.8097" style="stop-color:#F8DEFB"/>
										<stop  offset="0.8826" style="stop-color:#F3D0FA"/>
										<stop  offset="0.9599" style="stop-color:#ECBAF9"/>
										<stop  offset="0.981" style="stop-color:#EAB2F9"/>
										<stop  offset="1" style="stop-color:#EAB2F9"/>
									</radialGradient>
									
										<rect id="Rectangle-path_2_" x="0.758" y="7.649" mask="url(#mask-14_2_)" fill="url(#Rectangle-path_19_)" width="5.967" height="6.798"/>
								</g>
							</g>
						</g>
						<g id="Clipped_3_">
							<defs>
								<filter id="Adobe_OpacityMaskFilter_4_" filterUnits="userSpaceOnUse" x="3.301" y="16.984" width="7.003" height="4.665">
									<feColorMatrix  type="matrix" values="1 0 0 0 0  0 1 0 0 0  0 0 1 0 0  0 0 0 1 0"/>
								</filter>
							</defs>
							<mask maskUnits="userSpaceOnUse" x="3.301" y="16.984" width="7.003" height="4.665" id="mask-17_2_">
								<g filter="url(#Adobe_OpacityMaskFilter_4_)">
									<rect id="path-16_2_" x="0" y="7.237" fill="#FFFFFF" width="25.526" height="25.526"/>
								</g>
							</mask>
							<g mask="url(#mask-17_2_)">
								<g transform="translate(3.000000, 9.000000)">
									<defs>
										<filter id="Adobe_OpacityMaskFilter_5_" filterUnits="userSpaceOnUse" x="0.301" y="7.984" width="7.003" height="4.665">
											<feColorMatrix  type="matrix" values="1 0 0 0 0  0 1 0 0 0  0 0 1 0 0  0 0 0 1 0"/>
										</filter>
									</defs>
									<mask maskUnits="userSpaceOnUse" x="0.301" y="7.984" width="7.003" height="4.665" id="mask-19_2_">
										<g filter="url(#Adobe_OpacityMaskFilter_5_)">
											<path id="path-18_2_" fill="#FFFFFF" d="M1.785,7.984c-0.292,0-0.585,0.008-0.877,0.023
												c-0.099,0.005-0.199,0.02-0.295,0.051C0.601,8.061,0.59,8.065,0.579,8.069C0.511,8.093,0.455,8.122,0.41,8.161
												C0.366,8.198,0.335,8.243,0.319,8.293c-0.016,0.05-0.017,0.103-0.004,0.16c0.014,0.058,0.042,0.115,0.082,0.173
												c0.007,0.01,0.013,0.019,0.021,0.029c0.06,0.08,0.131,0.151,0.209,0.214c0.227,0.185,0.46,0.363,0.696,0.535l4.465,3.245
												l1.516-4.665H1.785z"/>
										</g>
									</mask>
									
										<radialGradient id="Rectangle-path_20_" cx="-319.3553" cy="-339.8254" r="0.0058" gradientTransform="matrix(4.599 0 0 -4.599 1456.8436 -1564.647)" gradientUnits="userSpaceOnUse">
										<stop  offset="0" style="stop-color:#FAE1F8"/>
										<stop  offset="0.6" style="stop-color:#FAE1F8"/>
										<stop  offset="0.85" style="stop-color:#F7D6F7"/>
										<stop  offset="1" style="stop-color:#F7D6F7"/>
									</radialGradient>
									
										<rect id="Rectangle-path_3_" x="0.301" y="7.984" mask="url(#mask-19_2_)" fill="url(#Rectangle-path_20_)" width="7.003" height="4.665"/>
								</g>
							</g>
						</g>
						<g id="Clipped_4_">
							<defs>
								<filter id="Adobe_OpacityMaskFilter_6_" filterUnits="userSpaceOnUse" x="6.791" y="21.649" width="5.967" height="6.798">
									<feColorMatrix  type="matrix" values="1 0 0 0 0  0 1 0 0 0  0 0 1 0 0  0 0 0 1 0"/>
								</filter>
							</defs>
							<mask maskUnits="userSpaceOnUse" x="6.791" y="21.649" width="5.967" height="6.798" id="mask-22_2_">
								<g filter="url(#Adobe_OpacityMaskFilter_6_)">
									<rect id="path-21_2_" x="0" y="7.237" fill="#FFFFFF" width="25.526" height="25.526"/>
								</g>
							</mask>
							<g mask="url(#mask-22_2_)">
								<g transform="translate(6.000000, 14.000000)">
									<defs>
										<filter id="Adobe_OpacityMaskFilter_7_" filterUnits="userSpaceOnUse" x="0.791" y="7.649" width="5.967" height="6.798">
											<feColorMatrix  type="matrix" values="1 0 0 0 0  0 1 0 0 0  0 0 1 0 0  0 0 0 1 0"/>
										</filter>
									</defs>
									<mask maskUnits="userSpaceOnUse" x="0.791" y="7.649" width="5.967" height="6.798" id="mask-24_2_">
										<g filter="url(#Adobe_OpacityMaskFilter_7_)">
											<path id="path-23_2_" fill="#FFFFFF" d="M1.084,12.899c-0.09,0.278-0.173,0.559-0.249,0.842
												c-0.025,0.096-0.042,0.196-0.044,0.296c0,0.012,0,0.024,0,0.036c0.002,0.072,0.012,0.134,0.036,0.189
												c0.022,0.054,0.055,0.097,0.097,0.128s0.093,0.049,0.151,0.054c0.059,0.005,0.122-0.004,0.191-0.025
												c0.011-0.003,0.022-0.007,0.034-0.011c0.094-0.032,0.185-0.078,0.268-0.133c0.245-0.159,0.487-0.325,0.723-0.497
												l4.466-3.245l-2.519-1.83L2.789,7.647L1.084,12.899z"/>
										</g>
									</mask>
									
										<radialGradient id="Rectangle-path_21_" cx="-337.3654" cy="-305.6859" r="0.0045" gradientTransform="matrix(5.882 0 0 -5.882 1998.551 -1777.6774)" gradientUnits="userSpaceOnUse">
										<stop  offset="0" style="stop-color:#FAE9FC"/>
										<stop  offset="0.669" style="stop-color:#FAE9FC"/>
										<stop  offset="0.8118" style="stop-color:#F8DEFA"/>
										<stop  offset="0.91" style="stop-color:#F6D4F8"/>
										<stop  offset="1" style="stop-color:#F6D4F8"/>
									</radialGradient>
									
										<rect id="Rectangle-path_4_" x="0.791" y="7.649" mask="url(#mask-24_2_)" fill="url(#Rectangle-path_21_)" width="5.967" height="6.798"/>
								</g>
							</g>
						</g>
						<g id="Clipped_5_">
							<defs>
								<filter id="Adobe_OpacityMaskFilter_8_" filterUnits="userSpaceOnUse" x="15.21" y="16.983" width="7.004" height="4.665">
									<feColorMatrix  type="matrix" values="1 0 0 0 0  0 1 0 0 0  0 0 1 0 0  0 0 0 1 0"/>
								</filter>
							</defs>
							<mask maskUnits="userSpaceOnUse" x="15.21" y="16.983" width="7.004" height="4.665" id="mask-27_2_">
								<g filter="url(#Adobe_OpacityMaskFilter_8_)">
									<rect id="path-26_2_" x="0" y="7.237" fill="#FFFFFF" width="25.526" height="25.526"/>
								</g>
							</mask>
							<g mask="url(#mask-27_2_)">
								<g transform="translate(14.000000, 9.000000)">
									<defs>
										<filter id="Adobe_OpacityMaskFilter_9_" filterUnits="userSpaceOnUse" x="1.21" y="7.983" width="7.004" height="4.665">
											<feColorMatrix  type="matrix" values="1 0 0 0 0  0 1 0 0 0  0 0 1 0 0  0 0 0 1 0"/>
										</filter>
									</defs>
									<mask maskUnits="userSpaceOnUse" x="1.21" y="7.983" width="7.004" height="4.665" id="mask-29_2_">
										<g filter="url(#Adobe_OpacityMaskFilter_9_)">
											<path id="path-28_2_" fill="#FFFFFF" d="M1.211,7.984l1.516,4.665l4.466-3.245c0.236-0.172,0.469-0.35,0.696-0.535
												c0.078-0.063,0.149-0.134,0.209-0.214c0.007-0.01,0.014-0.019,0.021-0.029C8.16,8.567,8.188,8.511,8.201,8.453
												c0.013-0.057,0.012-0.111-0.004-0.16c-0.016-0.05-0.047-0.094-0.091-0.132C8.061,8.122,8.004,8.093,7.938,8.069
												C7.926,8.065,7.915,8.061,7.904,8.058C7.809,8.029,7.709,8.014,7.609,8.008C7.317,7.991,7.025,7.984,6.731,7.984H1.211z"
												/>
										</g>
									</mask>
									
										<radialGradient id="Rectangle-path_22_" cx="-327.8197" cy="-345.7305" r="0.0058" gradientTransform="matrix(4.599 0 0 -4.599 1513.8098 -1564.6479)" gradientUnits="userSpaceOnUse">
										<stop  offset="0" style="stop-color:#FAE9FB"/>
										<stop  offset="0.68" style="stop-color:#FAE9FB"/>
										<stop  offset="0.8132" style="stop-color:#F8DEF8"/>
										<stop  offset="0.98" style="stop-color:#F5CAF2"/>
										<stop  offset="1" style="stop-color:#F5CAF2"/>
									</radialGradient>
									
										<rect id="Rectangle-path_5_" x="1.21" y="7.983" mask="url(#mask-29_2_)" fill="url(#Rectangle-path_22_)" width="7.004" height="4.665"/>
								</g>
							</g>
						</g>
						<g id="Clipped_6_">
							<defs>
								<filter id="Adobe_OpacityMaskFilter_10_" filterUnits="userSpaceOnUse" x="8.789" y="16.984" width="7.938" height="7.548">
									<feColorMatrix  type="matrix" values="1 0 0 0 0  0 1 0 0 0  0 0 1 0 0  0 0 0 1 0"/>
								</filter>
							</defs>
							<mask maskUnits="userSpaceOnUse" x="8.789" y="16.984" width="7.938" height="7.548" id="mask-32_2_">
								<g filter="url(#Adobe_OpacityMaskFilter_10_)">
									<rect id="path-31_2_" x="0" y="7.237" fill="#FFFFFF" width="25.526" height="25.526"/>
								</g>
							</mask>
							<polygon id="Shape_2_" mask="url(#mask-32_2_)" fill="#FFFFFF" points="10.305,16.984 8.789,21.649 10.239,22.702 
								12.758,24.532 16.727,21.649 15.211,16.984 							"/>
						</g>
					</g>
				</g>
			</g>
		</g>
		<g id="Clipped_1_">
			<defs>
				<filter id="Adobe_OpacityMaskFilter_11_" filterUnits="userSpaceOnUse" x="10.305" y="10.435" width="4.906" height="6.549">
					<feColorMatrix  type="matrix" values="1 0 0 0 0  0 1 0 0 0  0 0 1 0 0  0 0 0 1 0"/>
				</filter>
			</defs>
			<mask maskUnits="userSpaceOnUse" x="10.305" y="10.435" width="4.906" height="6.549" id="mask-7_2_">
				<g filter="url(#Adobe_OpacityMaskFilter_11_)">
					<rect id="path-6_2_" x="0" y="7.237" fill="#FFFFFF" width="25.526" height="25.526"/>
				</g>
			</mask>
			<g mask="url(#mask-7_2_)">
				<g transform="translate(10.000000, 3.000000)">
					<defs>
						<filter id="Adobe_OpacityMaskFilter_12_" filterUnits="userSpaceOnUse" x="0.305" y="7.435" width="4.906" height="6.549">
							<feColorMatrix  type="matrix" values="1 0 0 0 0  0 1 0 0 0  0 0 1 0 0  0 0 0 1 0"/>
						</filter>
					</defs>
					<mask maskUnits="userSpaceOnUse" x="0.305" y="7.435" width="4.906" height="6.549" id="mask-9_2_">
						<g filter="url(#Adobe_OpacityMaskFilter_12_)">
							<path id="path-8_2_" fill="#FFFFFF" d="M2.604,7.481C2.553,7.512,2.509,7.556,2.465,7.613
								C2.458,7.622,2.451,7.632,2.444,7.641C2.386,7.723,2.34,7.813,2.305,7.906C2.199,8.179,2.102,8.455,2.012,8.733l-1.706,5.251
								h4.906L3.505,8.733c-0.09-0.278-0.189-0.554-0.293-0.827C3.176,7.813,3.13,7.722,3.073,7.641
								c-0.007-0.01-0.014-0.019-0.021-0.028C3.008,7.556,2.963,7.511,2.912,7.481c-0.05-0.03-0.101-0.046-0.154-0.046
								S2.654,7.45,2.604,7.481"/>
						</g>
					</mask>
					
						<radialGradient id="Rectangle-path_23_" cx="-330.8569" cy="-328.4235" r="0.0055" gradientTransform="matrix(4.836 0 0 -4.836 1590.5909 -1566.7295)" gradientUnits="userSpaceOnUse">
						<stop  offset="0" style="stop-color:#FBE3F8"/>
						<stop  offset="0.745" style="stop-color:#FBE3F8"/>
						<stop  offset="0.8082" style="stop-color:#FADEF6"/>
						<stop  offset="0.8798" style="stop-color:#F9D1F0"/>
						<stop  offset="0.9554" style="stop-color:#F6BAE7"/>
						<stop  offset="0.98" style="stop-color:#F5B1E3"/>
						<stop  offset="1" style="stop-color:#F5B1E3"/>
					</radialGradient>
					
						<rect id="Rectangle-path_1_" x="0.305" y="7.435" mask="url(#mask-9_2_)" fill="url(#Rectangle-path_23_)" width="4.906" height="6.549"/>
				</g>
			</g>
		</g>
	</g>
</g>
</svg>
