<?xml version="1.0" encoding="utf-8"?>
<!-- Generator: Adobe Illustrator 21.1.0, SVG Export Plug-In . SVG Version: 6.00 Build 0)  -->
<svg version="1.1" id="Layer_1" xmlns="http://www.w3.org/2000/svg" xmlns:xlink="http://www.w3.org/1999/xlink" x="0px" y="0px"
	 viewBox="0 0 125 40" style="enable-background:new 0 0 125 40;" xml:space="preserve">
<style type="text/css">
	.st0{display:none;}
	.st1{display:inline;fill:#FFFFFF;}
	.st2{fill:#00A0EE;}
</style>
<g id="bg" class="st0">
	<rect class="st1" width="125" height="40"/>
</g>
<g>
	<g id="_Group_">
		<g id="_Group_2">
			<path id="_Compound_Path_" class="st2" d="M82.6,15.1c2.7,0,4.9,2.2,4.9,4.9s-2.2,4.9-4.9,4.9c-2.7,0-4.9-2.2-4.9-4.9v0
				C77.7,17.3,79.9,15.1,82.6,15.1 M82.6,11.9c-4.5,0-8.1,3.6-8.1,8.1s3.6,8.1,8.1,8.1s8.1-3.6,8.1-8.1l0,0
				C90.7,15.5,87,11.9,82.6,11.9C82.6,11.9,82.6,11.9,82.6,11.9z"/>
			<path id="_Compound_Path_2" class="st2" d="M32.3,12.4v1.3c-3.5-2.8-8.6-2.3-11.4,1.2s-2.3,8.6,1.2,11.4c3,2.4,7.3,2.4,10.2,0
				v1.3h3V12.4H32.3z M27.4,25c-2.8,0-5-2.3-5-5s2.3-5,5-5c2.8,0,5,2.3,5,5l0,0C32.4,22.8,30.2,25,27.4,25z"/>
			<path id="_Compound_Path_3" class="st2" d="M114.8,12.4v1.3c-3.5-2.8-8.6-2.3-11.4,1.2c-2.8,3.5-2.3,8.6,1.2,11.4
				c3,2.4,7.3,2.4,10.2,0v1.3h3V12.4H114.8z M109.9,25c-2.8,0-5-2.3-5-5s2.3-5,5-5c2.8,0,5,2.3,5,5C114.9,22.8,112.7,25,109.9,25
				L109.9,25z"/>
			<path id="_Path_" class="st2" d="M96,13.4c-1.7,1.1-3.2,3.1-3.2,6.6v7.7H96v-7.7l0,0c0-5,5.2-4.8,5.2-4.8v-3.2
				C101.2,11.9,98.4,11.8,96,13.4z"/>
			<path id="_Path_2" class="st2" d="M50.7,13.5c-3.6-2.7-8.7-2-11.3,1.6c-1.1,1.4-1.6,3.1-1.6,4.9v7.6H41V20c0-2.7,2.2-4.9,4.9-4.9
				s4.9,2.2,4.9,4.9v7.6h3.2V20C53.9,17.5,52.7,15.1,50.7,13.5z"/>
			<path id="_Compound_Path_4" class="st2" d="M70.8,7.5c-0.8,0-1.5,0.7-1.5,1.5v4.7c-3.5-2.8-8.6-2.3-11.4,1.2
				c-2.8,3.5-2.3,8.6,1.2,11.4c3,2.4,7.3,2.4,10.2,0v1.3h3V7.5H70.8z M64.4,25c-2.8,0-5-2.3-5-5c0-2.8,2.3-5,5-5c2.8,0,5,2.3,5,5
				C69.4,22.8,67.2,25,64.4,25L64.4,25z"/>
			<path id="_Compound_Path_5" class="st2" d="M9.1,11.9c-1.9,0-3.7,0.6-5.1,1.8v-1.3H1v20.1h1.5C3.3,32.5,4,31.8,4,31c0,0,0,0,0,0
				v-4.7c3.5,2.8,8.6,2.3,11.4-1.2c2.8-3.5,2.3-8.6-1.2-11.4C12.8,12.5,11,11.9,9.1,11.9z M8.9,25c-2.8,0-5-2.3-5-5s2.3-5,5-5
				s5,2.3,5,5l0,0C14,22.8,11.7,25,8.9,25L8.9,25z"/>
		</g>
	</g>
	<path class="st2" d="M122.2,13.2c-1.6,0-2.8-1.3-2.8-2.8s1.3-2.8,2.8-2.8c1.6,0,2.8,1.3,2.8,2.8c0,0,0,0,0,0
		C125,11.9,123.7,13.2,122.2,13.2z M122.2,7.9c-1.4,0-2.5,1.1-2.5,2.5c0,1.4,1.1,2.5,2.5,2.5c1.4,0,2.5-1.1,2.5-2.5
		C124.7,9,123.6,7.9,122.2,7.9C122.2,7.9,122.2,7.9,122.2,7.9z M123,12l-0.8-1.3h-0.6V12h-0.4V8.8h1.3c0.5,0,1,0.4,1,0.9
		c0,0,0,0,0,0.1c0,0.5-0.3,0.9-0.8,1l0.9,1.3L123,12L123,12z M122.4,9.1h-0.9v1.2h0.9c0.3,0,0.6-0.3,0.6-0.6
		C123,9.4,122.7,9.1,122.4,9.1L122.4,9.1z"/>
</g>
</svg>
