<?xml version="1.0" encoding="utf-8"?>
<!-- Generator: Adobe Illustrator 16.0.0, SVG Export Plug-In . SVG Version: 6.00 Build 0)  -->
<!DOCTYPE svg PUBLIC "-//W3C//DTD SVG 1.1//EN" "http://www.w3.org/Graphics/SVG/1.1/DTD/svg11.dtd">
<svg version="1.1" xmlns="http://www.w3.org/2000/svg" xmlns:xlink="http://www.w3.org/1999/xlink" x="0px" y="0px" width="125px"
	 height="40px" viewBox="0 0 125 40" enable-background="new 0 0 125 40" xml:space="preserve">
<g id="Layer_1">
</g>
<g id="Layer_2">
	<g>
		<defs>
			<path id="SVGID_1_" d="M59.9,16.5v5.1c0,1.5-0.7,2.4-1.9,2.4c-1.2,0-1.9-0.9-1.9-2.4v-5.1h-1.8v5.1c0,2.6,1.5,4.1,3.7,4.1
				c2.3,0,3.7-1.5,3.7-4.2v-5.1H59.9z M69.5,16.5v3.8c0,0.5,0,1.6,0,2c-0.1-0.2-0.4-0.7-0.6-1l-3.2-4.8H64v9.1h1.8v-4
				c0-0.5,0-1.7,0-2c0.1,0.2,0.4,0.7,0.6,1l3.3,5h1.6v-9.1H69.5z M75.5,18.3h1c1.9,0,2.7,0.9,2.7,2.8c0,1.7-0.9,2.8-2.8,2.8h-0.9
				V18.3z M73.7,16.5v9.1h2.7c2.3,0,4.7-1.3,4.7-4.5c0-3.3-1.9-4.5-4.5-4.5H73.7z M91.6,16.5v9.1h5.5v-1.8h-3.6v-7.3H91.6z
				 M113.1,16.5v5.1c0,1.5-0.7,2.4-1.9,2.4c-1.2,0-1.9-0.9-1.9-2.4v-5.1h-1.8v5.1c0,2.6,1.5,4.1,3.7,4.1c2.3,0,3.7-1.5,3.7-4.2v-5.1
				H113.1z M119,18.3h1c1.9,0,2.7,0.9,2.7,2.8c0,1.7-0.9,2.8-2.8,2.8H119V18.3z M117.2,16.5v9.1h2.7c2.3,0,4.7-1.3,4.7-4.5
				c0-3.3-1.9-4.5-4.5-4.5H117.2z M36.5,19.1c0,1.8,1.2,2.3,2.8,2.7c1.7,0.4,2,0.6,2,1.2c0,0.7-0.5,1-1.6,1c-0.9,0-1.7-0.3-2.3-1
				l-1.3,1.2c0.7,1,2,1.7,3.5,1.7c2.5,0,3.6-1.2,3.6-2.9c0-2-1.6-2.5-3-2.8c-1.4-0.3-1.8-0.5-1.8-1.1c0-0.4,0.3-0.8,1.3-0.8
				c0.8,0,1.5,0.3,2.1,0.9l1.3-1.3c-0.9-0.9-1.9-1.4-3.3-1.4C37.9,16.4,36.5,17.4,36.5,19.1 M46.5,21.1c0-1.6,0.6-2.9,2.1-2.9
				c1.5,0,2.1,1.3,2.1,2.9c0,1.6-0.6,2.9-2.1,2.9C47.1,24,46.5,22.7,46.5,21.1 M44.6,21.1c0,2.8,1.5,4.7,3.9,4.7c2.5,0,4-1.9,4-4.7
				c0-2.8-1.5-4.7-4-4.7C46.1,16.4,44.6,18.3,44.6,21.1 M82.6,21.1c0,2.9,1.6,4.7,4,4.7c1.7,0,2.7-0.8,3.4-2.1l-1.5-0.9
				c-0.5,0.8-1,1.2-1.8,1.2c-1.4,0-2.2-1.2-2.2-2.9c0-1.7,0.8-2.9,2.1-2.9c0.8,0,1.3,0.4,1.7,1l1.7-0.8c-0.6-1.2-1.6-2-3.3-2
				C84.3,16.4,82.6,18.3,82.6,21.1 M99.8,21.1c0-1.6,0.6-2.9,2.1-2.9c1.5,0,2.1,1.3,2.1,2.9c0,1.6-0.6,2.9-2.1,2.9
				C100.4,24,99.8,22.7,99.8,21.1 M97.9,21.1c0,2.8,1.5,4.7,3.9,4.7c2.5,0,3.9-1.9,3.9-4.7c0-2.8-1.5-4.7-3.9-4.7
				C99.4,16.4,97.9,18.3,97.9,21.1 M0.2,21.7L0,23.5l0.2,1.8c0,0.1,0.1,0.1,0.1,0.1c0.1,0,0.1-0.1,0.1-0.1l0.3-1.8l-0.3-1.8
				c0-0.1-0.1-0.1-0.1-0.1C0.3,21.6,0.2,21.6,0.2,21.7 M1.4,20.6l-0.3,2.9l0.3,2.9c0,0.1,0.1,0.1,0.1,0.1c0.1,0,0.1-0.1,0.1-0.1
				l0.4-2.9l-0.4-2.9c0-0.1-0.1-0.1-0.1-0.1C1.5,20.4,1.4,20.5,1.4,20.6 M5.2,20.2L5,23.5L5.2,27c0,0.1,0.1,0.2,0.2,0.2
				c0.1,0,0.2-0.1,0.2-0.2L6,23.5l-0.3-3.3c0-0.1-0.1-0.2-0.2-0.2C5.3,20,5.2,20.1,5.2,20.2 M2.7,20l-0.3,3.5l0.3,3.3
				c0,0.1,0.1,0.2,0.2,0.2C2.9,27,3,26.9,3,26.8l0.3-3.3L3,20c0-0.1-0.1-0.2-0.2-0.2C2.8,19.9,2.7,19.9,2.7,20 M3.9,19.9l-0.3,3.6
				l0.3,3.4c0,0.1,0.1,0.2,0.2,0.2c0.1,0,0.2-0.1,0.2-0.2l0.3-3.4l-0.3-3.6c0-0.1-0.1-0.2-0.2-0.2C4,19.7,4,19.8,3.9,19.9 M6.5,18.1
				l-0.3,5.4L6.5,27c0,0.1,0.1,0.2,0.2,0.2C6.9,27.2,7,27.1,7,27v0l0.3-3.5L7,18.1c0-0.1-0.1-0.2-0.2-0.2C6.6,17.9,6.5,18,6.5,18.1
				 M7.8,16.9l-0.2,6.6L7.8,27c0,0.2,0.1,0.3,0.3,0.3c0.1,0,0.3-0.1,0.3-0.3l0.3-3.5l-0.3-6.6c0-0.2-0.1-0.3-0.3-0.3
				C7.9,16.6,7.8,16.7,7.8,16.9 M13.1,16.6l-0.2,6.9l0.2,3.3c0,0.2,0.2,0.4,0.4,0.4c0.2,0,0.4-0.2,0.4-0.4v0l0.2-3.3l-0.2-7
				c0-0.2-0.2-0.4-0.4-0.4C13.2,16.2,13.1,16.3,13.1,16.6 M9.1,16.3l-0.2,7.2l0.2,3.4c0,0.2,0.1,0.3,0.3,0.3c0.2,0,0.3-0.1,0.3-0.3
				l0.2-3.4l-0.2-7.2c0-0.2-0.1-0.3-0.3-0.3C9.2,16,9.1,16.2,9.1,16.3 M11.7,16.3l-0.2,7.2l0.2,3.4c0,0.2,0.2,0.4,0.4,0.4
				c0.2,0,0.4-0.2,0.4-0.4v0l0.2-3.4l-0.2-7.2c0-0.2-0.2-0.4-0.4-0.4C11.9,15.9,11.7,16.1,11.7,16.3 M10.4,16.1l-0.2,7.4l0.2,3.4
				c0,0.2,0.1,0.3,0.3,0.3c0.2,0,0.3-0.1,0.3-0.3v0v0v0l0.2-3.4l-0.2-7.4c0-0.2-0.2-0.3-0.3-0.3C10.6,15.8,10.4,15.9,10.4,16.1
				 M14.4,15.2l-0.2,8.3c0,0,0.2,3.3,0.2,3.3c0,0.2,0.2,0.4,0.4,0.4s0.4-0.2,0.4-0.4v0v0l0.2-3.3l-0.2-8.3c0-0.2-0.2-0.4-0.4-0.4
				S14.4,15,14.4,15.2 M15.8,14.5l-0.2,9l0.2,3.3c0,0.2,0.2,0.4,0.4,0.4c0.2,0,0.4-0.2,0.4-0.4v0l0.2-3.3l-0.2-9
				c0-0.2-0.2-0.4-0.4-0.4C16,14,15.8,14.2,15.8,14.5 M17.4,13.6c-0.3,0.1-0.4,0.2-0.4,0.5v12.7c0,0.2,0.2,0.4,0.4,0.5
				c0,0,11,0,11.1,0c2.2,0,4-1.8,4-4c0-2.2-1.8-4-4-4c-0.5,0-1.1,0.1-1.5,0.3c-0.3-3.6-3.3-6.4-7-6.4C19.1,13.1,18.2,13.3,17.4,13.6
				"/>
		</defs>
		<clipPath id="SVGID_2_">
			<use xlink:href="#SVGID_1_"  overflow="visible"/>
		</clipPath>
		
			<linearGradient id="SVGID_3_" gradientUnits="userSpaceOnUse" x1="357.3867" y1="281.2871" x2="358.5593" y2="281.2871" gradientTransform="matrix(0 53.0063 53.0063 0 -14847.6875 -18966.5508)">
			<stop  offset="0" style="stop-color:#F8A01D"/>
			<stop  offset="0.7128" style="stop-color:#F26E23"/>
			<stop  offset="1" style="stop-color:#EF5826"/>
		</linearGradient>
		<rect y="0" clip-path="url(#SVGID_2_)" fill="url(#SVGID_3_)" width="124.5" height="39.4"/>
	</g>
</g>
<g id="Layer_3">
</g>
<g id="Layer_4">
</g>
</svg>
