<?xml version="1.0" encoding="utf-8"?>
<!-- Generator: Adobe Illustrator 16.0.0, SVG Export Plug-In . SVG Version: 6.00 Build 0)  -->
<!DOCTYPE svg PUBLIC "-//W3C//DTD SVG 1.1//EN" "http://www.w3.org/Graphics/SVG/1.1/DTD/svg11.dtd">
<svg version="1.1" xmlns="http://www.w3.org/2000/svg" xmlns:xlink="http://www.w3.org/1999/xlink" x="0px" y="0px" width="125px"
	 height="40px" viewBox="0 0 125 40" enable-background="new 0 0 125 40" xml:space="preserve">
<g id="Layer_1">
</g>
<g id="Layer_2">
	<g>
		<g>
			<path fill-rule="evenodd" clip-rule="evenodd" d="M68.4,27.7c0-0.1,0-0.2,0-0.3c0-4.9,0-9.8,0-14.8c0-0.1,0-0.2,0-0.3
				c0.1,0,0.1,0,0.2,0c1.9,0,3.9,0,5.8,0c1.4,0,2.8,0.3,4.1,1c2,1,3.3,2.7,3.7,5c0.3,1.4,0.2,2.7-0.2,4.1c-0.6,2-1.9,3.4-3.7,4.3
				c-1,0.5-2,0.8-3.1,0.9c-0.2,0-0.4,0.1-0.5,0.1C72.7,27.7,70.6,27.7,68.4,27.7z M71.9,24.6c0.1,0,0.1,0,0.2,0c0.7,0,1.4,0,2.2,0
				c0.5,0,1-0.1,1.5-0.2c1.6-0.5,2.6-1.5,3.1-3.1c0.2-0.8,0.2-1.7,0.1-2.5c-0.3-1.3-1-2.3-2.3-3c-0.7-0.4-1.5-0.5-2.2-0.5
				c-0.7,0-1.5,0-2.2,0c-0.1,0-0.1,0-0.2,0C71.9,18.4,71.9,21.5,71.9,24.6z"/>
			<path fill-rule="evenodd" clip-rule="evenodd" d="M89.4,27.7c0-0.1,0-0.1,0.1-0.2c2.1-5,4.1-10,6.2-14.9c0-0.1,0.1-0.1,0.1-0.2
				c1.2,0,2.4,0,3.6,0c0.1,0.2,0.2,0.5,0.3,0.7c2,4.8,3.9,9.6,5.9,14.4c0,0.1,0,0.2,0.1,0.3c-1.3,0-2.5,0-3.8,0c0,0,0-0.1,0-0.1
				c-0.3-0.9-0.7-1.8-1-2.7c0-0.1-0.1-0.2-0.1-0.3c-2.2,0-4.3,0-6.4,0c-0.4,1-0.8,2-1.1,3C91.9,27.7,90.7,27.7,89.4,27.7z
				 M99.8,21.9c-0.8-2-1.5-3.9-2.3-5.9c-0.2,0.4-2.3,5.8-2.3,5.9C96.8,21.9,98.3,21.9,99.8,21.9z"/>
			<path fill-rule="evenodd" clip-rule="evenodd" d="M30.4,12.3c2.4,0,4.9,0,7.3,0c1.6,0,3.3,0,4.9,0c0.1,0,0.2,0,0.3,0
				c0,0.2,0.1,2.6,0,3c-1.5,0-3,0-4.5,0c0,0.1,0,0.2,0,0.3c0,1.1,0,2.1,0,3.2c0,2.9,0,5.7,0,8.6c0,0.1,0,0.2,0,0.3
				c-1.2,0-2.3,0-3.5,0c0-0.1,0-0.2,0-0.3c0-3.9,0-7.8,0-11.8c0-0.1,0-0.2,0-0.3c-1.5,0-3,0-4.5,0C30.4,14.3,30.4,13.3,30.4,12.3z"
				/>
			<path fill-rule="evenodd" clip-rule="evenodd" d="M115,27.7c0-0.1,0-0.2,0-0.2c0-4.9,0-9.9,0-14.8c0-0.1,0-0.2,0-0.3
				c0.2,0,3.2-0.1,3.5,0c0,4.1,0,8.2,0,12.2c0.1,0,0.1,0,0.2,0c1.9,0,3.8,0,5.7,0c0,0,0.1,0,0.2,0c0,1,0,2,0,3.1
				C121.4,27.7,118.2,27.7,115,27.7z"/>
			<path fill-rule="evenodd" clip-rule="evenodd" d="M53.3,27.7c0-5.1,0-10.2,0-15.3c0.2,0,3.2-0.1,3.5,0c0,0.1,0,0.1,0,0.2
				c0,5,0,10,0,15c0,0,0,0.1,0,0.1C55.7,27.7,54.5,27.7,53.3,27.7z"/>
		</g>
		<g>
			<path fill-rule="evenodd" clip-rule="evenodd" d="M20.9,11.7c0,0.1,0.1,0.1,0.1,0.2c1.3,1.3,2.6,2.6,3.8,3.8
				c0.1,0.1,0.1,0.1,0.2,0.1c-1.4,1.4-2.8,2.8-4.2,4.2c-1.4-1.4-2.7-2.7-4.1-4.1c-1.4,1.4-2.8,2.8-4.2,4.2c-1.4-1.4-2.8-2.8-4.2-4.2
				c-1.4,1.4-2.8,2.8-4.1,4.1c-1.4-1.4-2.8-2.8-4.2-4.2c0,0,0.1-0.1,0.1-0.1c1.3-1.3,2.6-2.6,3.8-3.8c0.1-0.1,0.1-0.1,0.1-0.2
				c0,0,0,0,0,0c0,0,0,0.1,0.1,0.1c1.3,1.3,2.7,2.7,4,4c0,0,0.1,0.1,0.1,0.1c0,0,0.1-0.1,0.1-0.1c1.3-1.3,2.6-2.6,3.9-3.9
				c0,0,0.1-0.1,0.1-0.1c0,0,0,0,0,0c1.4,1.4,2.8,2.8,4.2,4.2c0.1-0.1,0.1-0.1,0.2-0.2c1.3-1.3,2.6-2.6,3.9-3.9
				C20.8,11.7,20.8,11.7,20.9,11.7C20.9,11.7,20.9,11.7,20.9,11.7z"/>
			<path fill-rule="evenodd" clip-rule="evenodd" d="M8.4,24.2c1.4-1.4,2.7-2.7,4.1-4.1c1.4,1.4,2.8,2.8,4.1,4.1
				c-1.4,1.4-2.8,2.8-4.1,4.1C11.1,27,9.8,25.6,8.4,24.2z"/>
		</g>
	</g>
</g>
<g id="Layer_3">
</g>
<g id="Layer_4">
</g>
</svg>
